<mxfile host="Electron" modified="2024-07-21T01:20:54.338Z" agent="Mozilla/5.0 (Windows NT 10.0; Win64; x64) AppleWebKit/537.36 (KHTML, like Gecko) draw.io/24.5.3 Chrome/124.0.6367.207 Electron/30.0.6 Safari/537.36" etag="JIfkuKCt6SAJN9DIUIBu" version="24.5.3" type="device">
  <diagram name="Página-1" id="Z4GrNal1tBqodtYZbD51">
    <mxGraphModel dx="2074" dy="836" grid="1" gridSize="10" guides="1" tooltips="1" connect="1" arrows="1" fold="1" page="1" pageScale="1" pageWidth="1169" pageHeight="827" math="0" shadow="0">
      <root>
        <mxCell id="0" />
        <mxCell id="1" parent="0" />
        <mxCell id="5ksZAa2o2RdJJdmaY0gx-1" value="&lt;div&gt;&lt;span style=&quot;background-color: initial;&quot;&gt;Se espera poder dar claridad en los resultados de los diferente aeropuertos (Numero de Pasajeros y Carga transportada, según lo planeado) usando diferentes parámetros para clasificar los aeropuertos y así poder crear estimaciones y mejorar la planeación de rutas y ofertas en las aerolíneas.&lt;/span&gt;&lt;br&gt;&lt;/div&gt;" style="rounded=0;whiteSpace=wrap;html=1;container=0;align=left;verticalAlign=top;textShadow=0;spacing=5;" parent="1" vertex="1">
          <mxGeometry x="30" y="100" width="550" height="120" as="geometry" />
        </mxCell>
        <mxCell id="5ksZAa2o2RdJJdmaY0gx-2" value="Data Storytelling Canvas" style="rounded=0;whiteSpace=wrap;html=1;fontStyle=1;fontSize=20;fillColor=#dae8fc;strokeColor=#6c8ebf;container=0;" parent="1" vertex="1">
          <mxGeometry x="30" y="20" width="1100" height="40" as="geometry" />
        </mxCell>
        <mxCell id="5ksZAa2o2RdJJdmaY0gx-3" value="Audiencia" style="rounded=0;whiteSpace=wrap;html=1;fontStyle=1;fontSize=18;fillColor=#e1d5e7;strokeColor=#9673a6;container=0;" parent="1" vertex="1">
          <mxGeometry x="580" y="60" width="550" height="40" as="geometry" />
        </mxCell>
        <mxCell id="5ksZAa2o2RdJJdmaY0gx-4" value="&lt;div&gt;&lt;span style=&quot;background-color: initial;&quot;&gt;Equipo de Operaciones de Aerolíneas, se dedican a revisar la planeación de rutas y determinación de oferta de Carga y Asientos para los vuelos.&lt;/span&gt;&lt;br&gt;&lt;/div&gt;&lt;div&gt;Tiene conocimientos del mercado, de logística, de ventas y presupuestos de la aerolínea.&lt;/div&gt;&lt;div&gt;&lt;br&gt;&lt;/div&gt;&lt;div&gt;Carece de Formas Cuantitativas de estimación a largo plazo.&lt;/div&gt;&lt;div&gt;&lt;br&gt;&lt;/div&gt;&lt;div&gt;Espera poder optimizar las rutas y la ofertas de carga y pasajeros de la aerolínea.&lt;/div&gt;" style="rounded=0;whiteSpace=wrap;html=1;container=0;align=left;verticalAlign=top;textShadow=0;spacingLeft=0;spacing=5;" parent="1" vertex="1">
          <mxGeometry x="580" y="100" width="550" height="120" as="geometry" />
        </mxCell>
        <mxCell id="5ksZAa2o2RdJJdmaY0gx-5" value="Objetivo" style="rounded=0;whiteSpace=wrap;html=1;fontStyle=1;fontSize=18;fillColor=#d5e8d4;strokeColor=#82b366;container=0;" parent="1" vertex="1">
          <mxGeometry x="30" y="60" width="550" height="40" as="geometry" />
        </mxCell>
        <mxCell id="5ksZAa2o2RdJJdmaY0gx-6" value="Inicio" style="rounded=0;whiteSpace=wrap;html=1;fontSize=18;fontStyle=1;fillColor=#fff2cc;strokeColor=#d6b656;container=0;" parent="1" vertex="1">
          <mxGeometry x="30" y="220" width="300" height="40" as="geometry" />
        </mxCell>
        <mxCell id="5ksZAa2o2RdJJdmaY0gx-7" value="Medio" style="rounded=0;whiteSpace=wrap;html=1;fontSize=18;fontStyle=1;fillColor=#ffe6cc;strokeColor=#d79b00;container=0;" parent="1" vertex="1">
          <mxGeometry x="330" y="220" width="500" height="40" as="geometry" />
        </mxCell>
        <mxCell id="5ksZAa2o2RdJJdmaY0gx-8" value="Conclusión" style="rounded=0;whiteSpace=wrap;html=1;fontSize=18;fontStyle=1;fillColor=#f8cecc;strokeColor=#b85450;container=0;" parent="1" vertex="1">
          <mxGeometry x="830" y="220" width="300" height="40" as="geometry" />
        </mxCell>
        <mxCell id="5ksZAa2o2RdJJdmaY0gx-9" value="&lt;div&gt;Momento del conocimiento Vs. Momento del Aha&lt;span style=&quot;white-space:pre&quot;&gt;&#x9;&#x9;&#x9;&#x9;&lt;/span&gt;&lt;/div&gt;&lt;div&gt;Incluir las escenas y seleccionar el tipo apropiado de los 5 descritos en el área de presentación de los datos.&lt;/div&gt;" style="rounded=0;whiteSpace=wrap;html=1;container=0;align=left;verticalAlign=top;textShadow=0;spacing=5;" parent="1" vertex="1">
          <mxGeometry x="330" y="260" width="500" height="150" as="geometry" />
        </mxCell>
        <mxCell id="5ksZAa2o2RdJJdmaY0gx-10" value="Presentación de Datos" style="rounded=0;whiteSpace=wrap;html=1;fontSize=18;fontStyle=1;fillColor=#d0cee2;strokeColor=#56517e;container=0;" parent="1" vertex="1">
          <mxGeometry x="330" y="410" width="500" height="40" as="geometry" />
        </mxCell>
        <mxCell id="5ksZAa2o2RdJJdmaY0gx-11" value="Evolución" style="rounded=0;whiteSpace=wrap;html=1;fontSize=12;fontStyle=1;fillColor=#b0e3e6;strokeColor=#0e8088;container=0;" parent="1" vertex="1">
          <mxGeometry x="330" y="450" width="100" height="40" as="geometry" />
        </mxCell>
        <mxCell id="5ksZAa2o2RdJJdmaY0gx-12" value="Comparación" style="rounded=0;whiteSpace=wrap;html=1;fontSize=12;fontStyle=1;fillColor=#b0e3e6;strokeColor=#0e8088;container=0;" parent="1" vertex="1">
          <mxGeometry x="430" y="450" width="100" height="40" as="geometry" />
        </mxCell>
        <mxCell id="5ksZAa2o2RdJJdmaY0gx-14" value="Relación" style="rounded=0;whiteSpace=wrap;html=1;fontSize=12;fontStyle=1;fillColor=#b0e3e6;strokeColor=#0e8088;container=0;" parent="1" vertex="1">
          <mxGeometry x="530" y="450" width="100" height="40" as="geometry" />
        </mxCell>
        <mxCell id="5ksZAa2o2RdJJdmaY0gx-15" value="Descomposición" style="rounded=0;whiteSpace=wrap;html=1;fontSize=12;fontStyle=1;fillColor=#b0e3e6;strokeColor=#0e8088;container=0;" parent="1" vertex="1">
          <mxGeometry x="630" y="450" width="100" height="40" as="geometry" />
        </mxCell>
        <mxCell id="5ksZAa2o2RdJJdmaY0gx-16" value="Distribución" style="rounded=0;whiteSpace=wrap;html=1;fontSize=12;fontStyle=1;fillColor=#b0e3e6;strokeColor=#0e8088;container=0;" parent="1" vertex="1">
          <mxGeometry x="730" y="450" width="100" height="40" as="geometry" />
        </mxCell>
        <mxCell id="5ksZAa2o2RdJJdmaY0gx-17" value="Graficas de Barra por año para mostrar cambios." style="rounded=0;whiteSpace=wrap;html=1;container=0;align=center;verticalAlign=top;textShadow=0;spacing=5;" parent="1" vertex="1">
          <mxGeometry x="330" y="490" width="100" height="120" as="geometry" />
        </mxCell>
        <mxCell id="5ksZAa2o2RdJJdmaY0gx-18" value="&lt;div&gt;Graficas de Pastel para mostrar porcentajes.&lt;/div&gt;" style="rounded=0;whiteSpace=wrap;html=1;container=0;align=center;verticalAlign=top;textShadow=0;spacing=5;" parent="1" vertex="1">
          <mxGeometry x="430" y="490" width="100" height="120" as="geometry" />
        </mxCell>
        <mxCell id="5ksZAa2o2RdJJdmaY0gx-19" value="&lt;div&gt;N/A&lt;/div&gt;" style="rounded=0;whiteSpace=wrap;html=1;container=0;align=center;verticalAlign=top;textShadow=0;spacing=5;" parent="1" vertex="1">
          <mxGeometry x="530" y="490" width="100" height="120" as="geometry" />
        </mxCell>
        <mxCell id="5ksZAa2o2RdJJdmaY0gx-20" value="Sumatorias y promedios para mostrar totales y compararlos con datos globales." style="rounded=0;whiteSpace=wrap;html=1;container=0;align=center;verticalAlign=top;textShadow=0;spacing=5;" parent="1" vertex="1">
          <mxGeometry x="630" y="490" width="100" height="120" as="geometry" />
        </mxCell>
        <mxCell id="5ksZAa2o2RdJJdmaY0gx-21" value="N/A" style="rounded=0;whiteSpace=wrap;html=1;container=0;align=center;verticalAlign=top;textShadow=0;spacing=5;" parent="1" vertex="1">
          <mxGeometry x="730" y="490" width="100" height="120" as="geometry" />
        </mxCell>
        <mxCell id="5ksZAa2o2RdJJdmaY0gx-22" value="&lt;div&gt;Aprendizajes&lt;/div&gt;&lt;div&gt;&lt;span style=&quot;background-color: initial;&quot;&gt;Siguientes pasos (Quién, qué, cuando)&lt;/span&gt;&lt;/div&gt;" style="rounded=0;whiteSpace=wrap;html=1;container=0;align=left;verticalAlign=top;textShadow=0;spacing=5;" parent="1" vertex="1">
          <mxGeometry x="830" y="260" width="300" height="350" as="geometry" />
        </mxCell>
        <mxCell id="5ksZAa2o2RdJJdmaY0gx-23" value="&lt;div&gt;Gancho - contexto&lt;/div&gt;&lt;div&gt;Anticipo de lo que se va a ver&lt;/div&gt;&lt;div&gt;Importancia de lo que se va a hablar&lt;/div&gt;&lt;div&gt;Anticipación de las consecuencias&lt;/div&gt;&lt;div&gt;Lo que podría pasar&lt;/div&gt;&lt;div&gt;&lt;br&gt;&lt;/div&gt;&lt;div&gt;&lt;br&gt;&lt;/div&gt;" style="rounded=0;whiteSpace=wrap;html=1;container=0;align=left;verticalAlign=top;textShadow=0;spacing=5;" parent="1" vertex="1">
          <mxGeometry x="30" y="260" width="300" height="350" as="geometry" />
        </mxCell>
        <mxCell id="5ksZAa2o2RdJJdmaY0gx-24" value="Lista de Chequeos" style="rounded=0;whiteSpace=wrap;html=1;fontSize=18;fontStyle=1;fillColor=#bac8d3;strokeColor=#23445d;container=0;" parent="1" vertex="1">
          <mxGeometry x="30" y="610" width="1100" height="40" as="geometry" />
        </mxCell>
        <mxCell id="5ksZAa2o2RdJJdmaY0gx-25" value="" style="rounded=0;whiteSpace=wrap;html=1;container=0;align=left;verticalAlign=top;textShadow=0;" parent="1" vertex="1">
          <mxGeometry x="30" y="650" width="1100" height="80" as="geometry" />
        </mxCell>
        <mxCell id="5ksZAa2o2RdJJdmaY0gx-28" value="&lt;div&gt;Cumple el objetivo principal&amp;nbsp;&lt;span style=&quot;background-color: initial;&quot;&gt;✅&lt;/span&gt;&lt;/div&gt;&lt;div&gt;Animaciones incluidas ❌&lt;/div&gt;&lt;div&gt;Claro para la audiencia&amp;nbsp;&lt;span style=&quot;background-color: initial;&quot;&gt;✅&lt;/span&gt;&lt;/div&gt;" style="text;html=1;align=left;verticalAlign=middle;whiteSpace=wrap;rounded=0;spacing=5;" parent="1" vertex="1">
          <mxGeometry x="585" y="650" width="545" height="80" as="geometry" />
        </mxCell>
        <mxCell id="5ksZAa2o2RdJJdmaY0gx-30" value="&lt;div&gt;Claridad del background y foreground de cada escena ✅&lt;/div&gt;&lt;div&gt;Títulos incluyen acciones en todas las escenas&amp;nbsp;&lt;span style=&quot;background-color: initial;&quot;&gt;✅&lt;/span&gt;&lt;/div&gt;&lt;div&gt;Legible&amp;nbsp;&lt;span style=&quot;background-color: initial;&quot;&gt;✅&lt;/span&gt;&lt;/div&gt;&lt;div&gt;Background diferente para que aparezca silenciado - color, tamaño, agrupación&amp;nbsp;&lt;span style=&quot;background-color: initial;&quot;&gt;✅&lt;/span&gt;&lt;/div&gt;&lt;div style=&quot;&quot;&gt;Textos que guían&amp;nbsp;&lt;span style=&quot;background-color: initial;&quot;&gt;✅&lt;/span&gt;&lt;/div&gt;" style="text;html=1;align=left;verticalAlign=middle;whiteSpace=wrap;rounded=0;spacing=5;" parent="1" vertex="1">
          <mxGeometry x="30" y="650" width="545" height="80" as="geometry" />
        </mxCell>
      </root>
    </mxGraphModel>
  </diagram>
</mxfile>
